# xmcd
# Track frame offsets:
# 150
# 15600
# 28836
# 48102
# 65769
# 80316
# 96141
# 111338
# 129928
#
# Disc length: 1908 seconds
# Revision: 0
# Processed by: cddbd v1.5.1PL0 Copyright (c) Steve Scherf et al.
# Submitted via: VisiTrax 2.9.10.228 - For more info visit www.synapsa.com
#
DISCID=6d077209
DTITLE=Various Artist - Hits Monthly Nashville  PHN0207
DYEAR=1900
DGENRE=Karaoke
TTITLE0=Messina, Jo Dee - Dare To Dream
TTITLE1=Brooks and Dunn - My Heart Is Lost To You
TTITLE2=McBride, Martina - Where Would You Be
TTITLE3=Diamond Rio - Beautiful Mess
TTITLE4=Marie Sisters - Real Bad Mood
TTITLE5=Chesney, Kenny - Good Stuff, The
TTITLE6=Sixwire - Look At Me Now
TTITLE7=Rogers, Kenny - Harder Cards
TTITLE8=Hometown News - Minivan
EXTD=
EXTT0=
EXTT1=
EXTT2=
EXTT3=
EXTT4=
EXTT5=
EXTT6=
EXTT7=
EXTT8=
PLAYORDER=
